<svg width="94" height="28" viewBox="0 0 94 28" fill="none" xmlns="http://www.w3.org/2000/svg">
<path d="M21.0455 1.80217V26.8262H16.1155V16.6602H4.92953V26.8262H-0.000468537V1.80217H4.92953V11.9002H16.1155V1.80217H21.0455ZM34.0197 27.2342C32.2064 27.2342 30.6651 26.8942 29.3957 26.2142C28.1491 25.5342 27.1971 24.5935 26.5397 23.3922C25.8824 22.1908 25.5537 20.8082 25.5537 19.2442C25.5537 17.7482 25.9391 16.3995 26.7097 15.1982C27.4804 13.9968 28.5117 13.0448 29.8037 12.3422C31.0957 11.6168 32.5351 11.2542 34.1217 11.2542C36.2524 11.2542 37.9977 11.8775 39.3577 13.1242C40.7404 14.3482 41.6357 16.1275 42.0437 18.4622L30.4837 22.1342L29.4297 19.5502L37.7937 16.7282L36.8077 17.1702C36.6264 16.5808 36.2977 16.0708 35.8217 15.6402C35.3684 15.1868 34.6771 14.9602 33.7477 14.9602C33.0451 14.9602 32.4217 15.1302 31.8777 15.4702C31.3564 15.7875 30.9484 16.2522 30.6537 16.8642C30.3817 17.4535 30.2457 18.1562 30.2457 18.9722C30.2457 19.9015 30.4157 20.6835 30.7557 21.3182C31.0957 21.9302 31.5604 22.3948 32.1497 22.7122C32.7391 23.0295 33.3964 23.1882 34.1217 23.1882C34.6431 23.1882 35.1417 23.0975 35.6177 22.9162C36.1164 22.7348 36.6037 22.4968 37.0797 22.2022L39.1877 25.7382C38.3944 26.1915 37.5331 26.5542 36.6037 26.8262C35.6971 27.0982 34.8357 27.2342 34.0197 27.2342ZM45.5027 26.8262V0.000170708H50.2627V26.8262H45.5027ZM54.0367 16.7282L60.7687 26.8262H55.2267L50.9087 19.4482L54.0367 16.7282ZM48.8347 22.7122L48.3587 18.1902L57.3347 11.5942L60.2247 14.1442L48.8347 22.7122ZM65.4572 5.44017H70.2172V11.9002H73.8212V15.6062H70.2172V26.8262H65.4572V15.6062H63.1452V11.9002H65.4572V5.44017ZM76.2881 19.2102C76.2881 17.6915 76.6394 16.3315 77.3421 15.1302C78.0674 13.9288 79.0761 12.9882 80.3681 12.3082C81.6601 11.6055 83.1448 11.2542 84.8221 11.2542C86.5221 11.2542 87.9954 11.6055 89.2421 12.3082C90.4888 12.9882 91.4408 13.9288 92.0981 15.1302C92.7781 16.3315 93.1181 17.6915 93.1181 19.2102C93.1181 20.7288 92.7781 22.1002 92.0981 23.3242C91.4408 24.5255 90.4888 25.4775 89.2421 26.1802C87.9954 26.8828 86.4994 27.2342 84.7541 27.2342C83.1221 27.2342 81.6601 26.9168 80.3681 26.2822C79.0988 25.6475 78.1014 24.7295 77.3761 23.5282C76.6508 22.3268 76.2881 20.8875 76.2881 19.2102ZM81.0821 19.2442C81.0821 20.0148 81.2408 20.7175 81.5581 21.3522C81.8754 21.9642 82.3061 22.4515 82.8501 22.8142C83.3941 23.1768 84.0061 23.3582 84.6861 23.3582C85.4341 23.3582 86.0801 23.1768 86.6241 22.8142C87.1681 22.4515 87.5874 21.9642 87.8821 21.3522C88.1768 20.7175 88.3241 20.0148 88.3241 19.2442C88.3241 18.4508 88.1768 17.7482 87.8821 17.1362C87.5874 16.5242 87.1681 16.0368 86.6241 15.6742C86.0801 15.3115 85.4341 15.1302 84.6861 15.1302C84.0061 15.1302 83.3941 15.3115 82.8501 15.6742C82.3061 16.0368 81.8754 16.5242 81.5581 17.1362C81.2408 17.7482 81.0821 18.4508 81.0821 19.2442Z" fill="#0D0E43"/>
</svg>
