<svg width="24" height="24" viewBox="0 0 24 24" fill="none" xmlns="http://www.w3.org/2000/svg">
<g clip-path="url(#clip0_1_863)">
<g filter="url(#filter0_d_1_863)">
<path d="M21.7094 20.2899L17.9994 16.6099C19.4395 14.8143 20.1369 12.5352 19.9482 10.2412C19.7595 7.94721 18.6991 5.81269 16.9849 4.27655C15.2708 2.74041 13.0332 1.91941 10.7323 1.98237C8.43145 2.04534 6.24214 2.98747 4.61456 4.61505C2.98698 6.24263 2.04485 8.43194 1.98189 10.7328C1.91893 13.0337 2.73992 15.2713 4.27606 16.9854C5.8122 18.6996 7.94672 19.76 10.2407 19.9487C12.5347 20.1374 14.8138 19.44 16.6094 17.9999L20.2894 21.6799C20.3824 21.7736 20.493 21.848 20.6148 21.8988C20.7367 21.9496 20.8674 21.9757 20.9994 21.9757C21.1314 21.9757 21.2621 21.9496 21.384 21.8988C21.5059 21.848 21.6165 21.7736 21.7094 21.6799C21.8897 21.4934 21.9904 21.2442 21.9904 20.9849C21.9904 20.7256 21.8897 20.4764 21.7094 20.2899V20.2899ZM10.9994 17.9999C9.61495 17.9999 8.26157 17.5894 7.11042 16.8202C5.95928 16.051 5.06207 14.9578 4.53226 13.6787C4.00245 12.3996 3.86382 10.9921 4.13392 9.63427C4.40402 8.27641 5.0707 7.02912 6.04967 6.05016C7.02864 5.07119 8.27592 4.4045 9.63378 4.13441C10.9917 3.86431 12.3991 4.00293 13.6782 4.53275C14.9573 5.06256 16.0505 5.95977 16.8197 7.11091C17.5889 8.26206 17.9994 9.61544 17.9994 10.9999C17.9994 12.8564 17.2619 14.6369 15.9492 15.9497C14.6364 17.2624 12.8559 17.9999 10.9994 17.9999V17.9999Z" fill="url(#paint0_linear_1_863)"/>
<path d="M10.7461 2.48193C12.9191 2.42249 15.0325 3.19815 16.6514 4.64893C18.2701 6.09962 19.2719 8.11538 19.4502 10.2817C19.6284 12.4483 18.9695 14.6015 17.6094 16.2974L17.3281 16.6479L17.6475 16.9653L21.3486 20.6372H21.3496C21.4397 20.7304 21.4902 20.8552 21.4902 20.9849C21.4902 21.1135 21.4403 21.2366 21.3516 21.3296C21.3056 21.3754 21.2513 21.412 21.1914 21.437C21.1305 21.4623 21.065 21.4761 20.999 21.4761C20.9331 21.476 20.8674 21.4623 20.8066 21.437C20.7459 21.4116 20.6909 21.3744 20.6445 21.3276L20.6426 21.3267L16.9629 17.646L16.6465 17.3296L16.2969 17.6099C14.601 18.97 12.4478 19.6289 10.2812 19.4507C8.11489 19.2724 6.09913 18.2706 4.64844 16.6519C3.19766 15.033 2.42201 12.9196 2.48145 10.7466C2.54091 8.57352 3.43061 6.50542 4.96777 4.96826C6.50493 3.4311 8.57304 2.5414 10.7461 2.48193ZM13.8691 4.0708C12.4988 3.50326 10.9909 3.35468 9.53613 3.64404C8.08132 3.93345 6.74516 4.64791 5.69629 5.69678C4.64742 6.74565 3.93296 8.08181 3.64355 9.53662C3.35419 10.9914 3.50277 12.4993 4.07031 13.8696C4.63797 15.2401 5.59964 16.4117 6.83301 17.2358C8.06622 18.0598 9.51589 18.4994 10.999 18.4995C12.9881 18.4995 14.8962 17.7097 16.3027 16.3032C17.7093 14.8967 18.499 12.9886 18.499 10.9995C18.4989 9.51637 18.0593 8.06671 17.2354 6.8335C16.4112 5.60013 15.2396 4.63846 13.8691 4.0708Z" stroke="black"/>
</g>
</g>
<defs>
<filter id="filter0_d_1_863" x="-2.02148" y="1.979" width="28.0117" height="27.9966" filterUnits="userSpaceOnUse" color-interpolation-filters="sRGB">
<feFlood flood-opacity="0" result="BackgroundImageFix"/>
<feColorMatrix in="SourceAlpha" type="matrix" values="0 0 0 0 0 0 0 0 0 0 0 0 0 0 0 0 0 0 127 0" result="hardAlpha"/>
<feOffset dy="4"/>
<feGaussianBlur stdDeviation="2"/>
<feComposite in2="hardAlpha" operator="out"/>
<feColorMatrix type="matrix" values="0 0 0 0 0 0 0 0 0 0 0 0 0 0 0 0 0 0 0.25 0"/>
<feBlend mode="normal" in2="BackgroundImageFix" result="effect1_dropShadow_1_863"/>
<feBlend mode="normal" in="SourceGraphic" in2="effect1_dropShadow_1_863" result="shape"/>
</filter>
<linearGradient id="paint0_linear_1_863" x1="1.97852" y1="1.979" x2="25.4283" y2="16.376" gradientUnits="userSpaceOnUse">
<stop stop-color="#F3F9FF"/>
<stop offset="1" stop-color="#F1F0FF"/>
</linearGradient>
<clipPath id="clip0_1_863">
<rect width="24" height="24" fill="white"/>
</clipPath>
</defs>
</svg>
